<?xml version="1.0" encoding="UTF-8" standalone="no"?>
<!-- Created with Inkscape (http://www.inkscape.org/) -->

<svg
   width="79.827896mm"
   height="40.838997mm"
   viewBox="0 0 79.827896 40.838997"
   version="1.1"
   id="svg1"
   xmlns:inkscape="http://www.inkscape.org/namespaces/inkscape"
   xmlns:sodipodi="http://sodipodi.sourceforge.net/DTD/sodipodi-0.dtd"
   xmlns="http://www.w3.org/2000/svg"
   xmlns:svg="http://www.w3.org/2000/svg">
  <sodipodi:namedview
     id="namedview1"
     pagecolor="#ffffff"
     bordercolor="#000000"
     borderopacity="0.25"
     inkscape:showpageshadow="2"
     inkscape:pageopacity="0.0"
     inkscape:pagecheckerboard="0"
     inkscape:deskcolor="#d1d1d1"
     inkscape:document-units="mm"
     inkscape:export-bgcolor="#ffffff00" />
  <defs
     id="defs1" />
  <g
     inkscape:label="Layer 1"
     inkscape:groupmode="layer"
     id="layer1"
     transform="translate(-65.245607,-117.88654)">
    <g
       id="text2"
       style="font-size:20.3799px;stroke-width:1.13222"
       aria-label="株式会社&#10;協和合成">
      <path
         style="font-family:'UD Digi Kyokasho NK-R';-inkscape-font-specification:'UD Digi Kyokasho NK-R'"
         d="m 78.808991,127.41972 q 1.482718,2.10963 3.313724,3.89089 0.915504,0.90555 1.831007,1.58222 0.527409,0.37815 0.527409,0.55727 0,0.15921 -0.338338,0.26868 -0.726432,0.23882 -1.184183,0.23882 -0.378143,0 -1.024966,-0.63687 -1.870811,-1.831 -3.562502,-4.76659 v 6.88618 q 0,0.70653 -0.736383,0.70653 -0.686628,0 -0.686628,-0.70653 v -6.43838 q -1.353352,2.35842 -3.5426,4.3785 -0.865747,0.79609 -1.144379,0.79609 -0.199022,0 -0.388093,-0.17912 -0.16917,-0.17912 -0.16917,-0.36819 0,-0.22888 0.626921,-0.80604 1.044868,-0.97521 2.29871,-2.76642 0.776187,-1.09462 1.413059,-2.28875 l 0.07961,-0.14927 -3.124653,0.23883 q -0.0199,0 -0.119413,0 -0.646823,0 -0.646823,-0.68663 0,-0.52741 0.61697,-0.57717 l 4.099862,-0.32838 v -2.84603 l -2.328563,0.20898 q -0.427898,1.02496 -0.865747,1.74144 -0.288583,0.47766 -0.626921,0.47766 -0.119413,0 -0.278631,-0.0796 -0.268681,-0.13932 -0.268681,-0.43785 0,-0.15922 0.228876,-0.56721 0.61697,-1.13443 1.134428,-3.16446 0.17912,-0.69658 0.288583,-1.40311 0.09951,-0.60702 0.656774,-0.60702 0.736383,0 0.736383,0.63687 0,0.4279 -0.517458,2.05989 l 1.840957,-0.16917 v -3.45304 q 0,-0.70653 0.696579,-0.70653 0.726432,0 0.726432,0.70653 v 3.32367 l 2.975386,-0.28858 q 0.0398,0 0.08956,0 0.666725,0 0.666725,0.69658 0,0.57716 -0.636872,0.62692 l -3.094799,0.27863 v 2.85597 l 4.298885,-0.33834 q 0.0199,0 0.07961,0 0.696579,0 0.696579,0.70653 0,0.54732 -0.676677,0.59707 z m -10.030732,-0.46771 q -1.253841,2.6072 -2.477829,4.17948 -0.328387,0.41794 -0.597068,0.41794 -0.159218,0 -0.288582,-0.12936 -0.169169,-0.15922 -0.169169,-0.35824 0,-0.20898 0.437849,-0.88565 1.701642,-2.6669 2.83607,-5.83136 l -2.12954,0.26868 q -0.05971,0.01 -0.149267,0.01 -0.636872,0 -0.636872,-0.62692 0,-0.58712 0.607019,-0.66673 l 2.567389,-0.30848 v -3.93069 q 0,-0.32839 0.248778,-0.49756 0.199023,-0.12937 0.43785,-0.12937 0.248778,0 0.437849,0.14927 0.238827,0.16917 0.238827,0.47766 v 3.76152 l 1.59218,-0.18907 q 0.04976,-0.01 0.129364,-0.01 0.646823,0 0.646823,0.61697 0,0.57716 -0.616969,0.65677 l -1.751398,0.21893 v 1.48271 q 1.452864,1.38321 1.850909,1.85091 0.368192,0.4279 0.368192,0.75629 0,0.25873 -0.199023,0.4279 -0.208973,0.18907 -0.457752,0.18907 -0.328387,0 -0.607018,-0.35824 -0.08956,-0.11942 -0.776188,-1.11453 -0.08956,-0.13931 -0.17912,-0.26868 v 8.15992 q 0,0.23883 -0.149267,0.39805 -0.208973,0.21892 -0.53736,0.21892 -0.368192,0 -0.577166,-0.26868 -0.09951,-0.13931 -0.09951,-0.34829 z m 28.689088,-3.37343 q 0.517458,3.13461 1.373255,5.2741 1.094623,2.71665 2.666898,4.59742 0.4478,0.53736 0.62692,0.53736 0.408,0 0.69658,-2.80622 0.0597,-0.53736 0.52741,-0.53736 0.25873,0 0.408,0.13932 0.16917,0.13931 0.16917,0.64682 0,1.82105 -0.24878,3.0948 -0.25873,1.3832 -1.26379,1.3832 -1.50262,0 -3.552555,-3.52269 -2.139491,-3.67197 -2.92563,-8.71719 l -8.209676,0.45775 h -0.04976 q -0.70653,-0.0199 -0.70653,-0.69657 0,-0.61697 0.626921,-0.64683 l 8.130068,-0.45775 q -0.358241,-2.73656 -0.358241,-3.71177 0,-0.72643 0.756285,-0.72643 0.547312,0 0.726432,0.48761 0.05971,0.15921 0.119414,1.09462 0.09951,1.43296 0.298534,2.77636 l 4.945708,-0.27863 q 0.73638,0 0.73638,0.67668 0,0.63687 -0.61697,0.66672 z m -4.87605,4.48796 v 3.79138 q 1.472766,-0.33834 2.666901,-0.69658 0.726432,-0.21893 0.88565,-0.21893 0.587116,0 0.587116,0.59707 0,0.4478 -0.497556,0.63687 -0.726432,0.27863 -2.497732,0.79609 -1.7713,0.51746 -2.885826,0.77619 -2.467878,0.58712 -3.114701,0.58712 -0.746335,0 -0.746335,-0.82595 0,-0.42789 0.447801,-0.61697 0.149267,-0.0697 0.905552,-0.17912 1.074721,-0.16917 2.527585,-0.47765 l 0.16917,-0.0299 v -4.02025 l -2.686804,0.19902 -0.09951,0.01 q -0.308485,0.0199 -0.507507,-0.25873 -0.129365,-0.16917 -0.129365,-0.39805 0,-0.60701 0.607019,-0.65677 l 6.756812,-0.50751 q 0.159218,-0.01 0.34829,0.0498 0.378142,0.14927 0.378142,0.60702 0,0.59707 -0.607018,0.64682 z m 6.627448,-9.83171 q 0.487605,0 2.199195,1.20409 0.45775,0.31843 0.59707,0.43784 0.33834,0.29854 0.33834,0.66673 0,0.26868 -0.18907,0.48761 -0.21893,0.25872 -0.56722,0.25872 -0.35824,0 -0.79609,-0.4677 -0.965256,-1.02496 -1.721541,-1.62203 -0.338338,-0.27863 -0.338338,-0.52741 0,-0.43785 0.477654,-0.43785 z m 16.578575,1.22399 q 3.68191,3.61226 8.05045,5.44326 0.89561,0.37814 0.89561,0.64683 0,0.18907 -0.4279,0.33833 -0.90556,0.30849 -1.38321,0.30849 -0.39804,0 -0.94536,-0.31844 -1.42301,-0.83589 -3.53264,-2.55744 -1.92057,-1.57227 -3.31373,-2.91568 -1.42301,2.02008 -3.5426,3.9506 -1.95042,1.7912 -3.85108,2.85597 -0.26868,0.14927 -0.47766,0.14927 -0.29853,0 -0.43785,-0.27863 -0.0697,-0.12937 -0.0697,-0.25873 0,-0.21893 0.19903,-0.408 0.0597,-0.0597 0.83589,-0.57716 2.34847,-1.55238 4.53771,-4.14962 1.29365,-1.52252 2.06984,-2.95548 0.35824,-0.64683 0.84584,-0.64683 0.25873,0 0.46771,0.14927 0.30848,0.21892 0.30848,0.58712 0,0.25873 -0.22887,0.63687 z m -0.63688,10.04068 q -1.42301,2.15939 -3.85108,4.32874 4.4382,-0.32839 7.34393,-0.84585 -0.56722,-0.58711 -1.19414,-1.17423 -0.31843,-0.30848 -0.31843,-0.54731 0,-0.18907 0.13931,-0.36819 0.14927,-0.17912 0.36819,-0.17912 0.24878,0 0.65678,0.30848 1.62203,1.22399 3.43314,2.96544 0.42789,0.40799 0.42789,0.79609 0,0.31843 -0.24877,0.54731 -0.23883,0.21892 -0.53736,0.21892 -0.39805,0 -0.93541,-0.62692 -0.27863,-0.32838 -0.86575,-0.97521 -1.7514,0.39805 -4.69693,0.76624 -4.07996,0.51746 -4.40835,0.51746 -0.40799,0 -0.64682,-0.45775 -0.19902,-0.3881 -0.19902,-0.64683 0,-0.20897 0.14927,-0.39804 0.0498,-0.0597 0.39804,-0.41795 1.2837,-1.31355 2.98534,-3.65206 l -4.20933,0.31843 q -0.0199,0 -0.0697,0 -0.41794,0 -0.60702,-0.40799 -0.0597,-0.13932 -0.0597,-0.26868 0,-0.60702 0.58712,-0.64682 l 13.16534,-1.00507 q 0.0597,0 0.0697,0 0.38809,0 0.58712,0.35824 0.0796,0.14927 0.0796,0.30849 0,0.26868 -0.16917,0.45775 -0.16917,0.18907 -0.41795,0.20897 z m 2.99529,-5.14473 q 0.23883,0 0.41795,0.0995 0.31843,0.18907 0.31843,0.53736 0,0.33834 -0.25872,0.52741 -0.13932,0.0995 -0.32839,0.11941 l -5.99058,0.4478 h -0.0398 q -0.29854,0 -0.49756,-0.21892 -0.17912,-0.18907 -0.17912,-0.4279 0,-0.59707 0.56722,-0.63687 z m 14.18035,3.37343 v 7.40364 q 0,0.24877 -0.11941,0.41794 -0.20897,0.29854 -0.60702,0.29854 -0.71648,0 -0.71648,-0.71648 v -7.24442 q -1.31355,1.33345 -2.93558,2.48778 -0.37814,0.26868 -0.63687,0.26868 -0.19902,0 -0.33834,-0.17912 -0.13932,-0.16917 -0.13932,-0.34829 0,-0.19902 0.16917,-0.37814 0.0498,-0.0498 0.61697,-0.48761 1.7315,-1.33345 3.76153,-3.87098 1.27374,-1.58223 1.27374,-1.89072 0,-0.12936 -0.18907,-0.12936 -0.0995,0 -0.17912,0.01 l -4.23918,0.69658 q -0.0597,0.01 -0.15922,0.01 -0.24877,0 -0.4279,-0.13932 -0.22887,-0.17912 -0.22887,-0.50751 0,-0.57716 0.63687,-0.66672 l 5.45322,-0.79609 q 0.20897,-0.0298 0.33833,-0.0298 0.95531,0 0.95531,0.75628 0,0.41795 -0.33834,0.96526 -0.86574,1.41306 -2.03002,2.75646 1.22398,0.58712 2.94553,1.79121 0.54731,0.37814 0.54731,0.78613 0,0.19903 -0.12937,0.3881 -0.22887,0.32839 -0.58711,0.32839 -0.32839,0 -0.82594,-0.4279 -0.8359,-0.72643 -1.87082,-1.55238 z m 7.87134,-1.35335 v 6.89613 l 4.07996,-0.21893 q 0.0199,0 0.0398,0 0.74633,0 0.74633,0.68663 0,0.70653 -0.72643,0.73638 l -9.36401,0.49756 h -0.0497 q -0.26868,0.0199 -0.49756,-0.14927 -0.24878,-0.15922 -0.24878,-0.53736 0,-0.68663 0.73639,-0.72643 l 3.77147,-0.19902 v -6.87623 l -2.81617,0.18907 q -0.81599,0.0597 -0.81599,-0.72643 0,-0.60702 0.69658,-0.65677 l 2.93558,-0.21893 v -5.55273 q 0,-0.38809 0.32839,-0.58711 0.20897,-0.11942 0.41795,-0.11942 0.26868,0 0.49755,0.16917 0.26868,0.19903 0.26868,0.53736 v 5.44327 l 3.01519,-0.21893 0.0796,-0.01 q 0.48761,-0.0298 0.67668,0.408 0.0796,0.17912 0.0796,0.37814 0,0.59707 -0.71648,0.64683 z m -10.43873,-8.20968 q 0.16917,0 0.50751,0.16917 1.70164,0.81599 2.55744,1.45286 0.43785,0.32839 0.43785,0.71649 0,0.18907 -0.13932,0.39804 -0.20897,0.32839 -0.58711,0.32839 -0.35824,0 -0.8359,-0.43785 -0.97521,-0.86575 -2.11959,-1.61208 -0.31843,-0.20898 -0.31843,-0.51746 0,-0.49756 0.49755,-0.49756 z"
         id="path23" />
      <path
         style="font-family:'UD Digi Kyokasho NK-R';-inkscape-font-specification:'UD Digi Kyokasho NK-R'"
         d="M 69.67386,147.17228 V 158.019 q 0,0.70653 -0.696578,0.70653 -0.70653,0 -0.70653,-0.70653 v -10.6676 l -1.811104,0.22887 q -0.07961,0.01 -0.129365,0.01 -0.716481,0 -0.716481,-0.76623 0,-0.59707 0.746334,-0.68663 l 1.910616,-0.24878 v -4.39839 q 0,-0.71649 0.70653,-0.71649 0.696578,0 0.696578,0.71649 v 4.21927 l 1.442913,-0.18907 q 0.0199,0 0.129365,0 0.736383,0 0.736383,0.73638 0,0.61697 -0.716481,0.71648 z m 7.542952,-3.00524 q -0.517459,1.3434 -1.184184,2.2589 -1.164281,1.58223 -2.617145,2.40818 -0.328387,0.18907 -0.507508,0.18907 -0.139315,0 -0.278631,-0.12937 -0.189071,-0.18907 -0.189071,-0.39804 0,-0.21893 0.467702,-0.55727 1.920567,-1.4031 2.796266,-3.63216 l -2.467879,0.21893 q -0.01,0 -0.109462,0 -0.636872,0 -0.636872,-0.58712 0,-0.61697 0.686628,-0.67667 l 2.955483,-0.24878 q 0.218925,-0.8359 0.407996,-1.91062 0.119414,-0.65677 0.656774,-0.65677 0.786139,0 0.786139,0.64682 0,0.4478 -0.348289,1.7912 l 2.796265,-0.23882 q 0.06966,0 0.208974,0 1.194135,0 1.194135,1.15433 0,0.76623 -0.358241,2.32856 -0.318436,1.33345 -0.676676,2.01013 -0.368192,0.68662 -1.15433,0.68662 -0.756286,0 -2.039981,-0.72643 -0.467702,-0.25873 -0.467702,-0.50751 0,-0.45775 0.407996,-0.45775 0.129364,0 0.378142,0.0995 0.716481,0.30849 1.214037,0.30849 0.388094,0 0.607019,-0.48761 0.318436,-0.73638 0.53736,-2.06983 0.119414,-0.68663 0.119414,-0.81599 0,-0.25873 -0.26868,-0.25873 -0.0199,0 -0.05971,0 z m -3.035093,7.9609 -0.02985,0.0995 q -0.626921,2.59724 -2.039981,4.50785 -0.815992,1.10458 -1.223988,1.10458 -0.159218,0 -0.318436,-0.14927 -0.17912,-0.17912 -0.17912,-0.36819 0,-0.19902 0.308485,-0.54731 0.656774,-0.73638 1.373255,-2.2191 0.507507,-1.03492 0.786139,-2.30866 l -1.303597,0.11941 q -0.07961,0.01 -0.109463,0.01 -0.567214,0 -0.567214,-0.54731 0,-0.54731 0.607019,-0.59707 l 1.602131,-0.12936 q 0.119413,-0.73638 0.17912,-1.2837 0.07961,-0.67667 0.676676,-0.67667 0.626921,0 0.626921,0.59706 0,0.28859 -0.159218,1.25385 l 1.134428,-0.0896 q 0.119413,-0.01 0.228876,-0.01 1.015014,0 1.015014,1.19413 0,1.61208 -0.497556,3.91079 -0.527409,2.46788 -1.482717,2.46788 -0.726432,0 -1.68174,-0.71648 -0.35824,-0.25873 -0.35824,-0.4677 0,-0.0995 0.06966,-0.19903 0.109463,-0.15921 0.298534,-0.15921 0.139316,0 0.328387,0.0796 0.507507,0.19902 0.79609,0.19902 0.378143,0 0.666725,-1.03492 0.338338,-1.20408 0.52741,-3.00524 0.05971,-0.61697 0.05971,-0.71648 0,-0.4478 -0.338339,-0.40799 l -0.05971,0.01 z m 6.418474,-0.15922 q -0.71648,3.47294 -2.497731,5.54277 -0.676677,0.79609 -0.975211,0.79609 -0.159217,0 -0.298533,-0.12936 -0.189072,-0.16917 -0.189072,-0.37814 0,-0.22888 0.338339,-0.62692 1.661837,-1.97033 2.248953,-5.10493 l -1.293646,0.0995 q -0.0199,0 -0.109462,0 -0.607018,0 -0.607018,-0.56721 0,-0.61697 0.646823,-0.65678 l 1.562326,-0.10946 0.0199,-0.13932 q 0.05971,-0.47765 0.09951,-0.99511 0.06966,-0.67667 0.636872,-0.67667 0.726432,0 0.726432,0.67667 0,0.23883 -0.09951,1.04487 l 1.253842,-0.0896 q 0.05971,0 0.189071,0 1.323499,0 1.323499,1.3434 0,1.60213 -0.35824,3.72172 -0.288583,1.66184 -0.646823,2.24896 -0.34829,0.57716 -0.935406,0.57716 -0.676676,0 -1.920567,-0.67668 -0.437849,-0.23882 -0.437849,-0.49755 0,-0.4478 0.407996,-0.4478 0.09951,0 0.298534,0.0697 0.636872,0.22887 1.104574,0.22887 0.218925,0 0.388094,-0.37814 0.278632,-0.62692 0.497556,-2.05988 0.25873,-1.61208 0.25873,-2.50769 0,-0.39804 -0.328387,-0.39804 -0.04976,0 -0.07961,0 z m 9.74215,-1.84096 q -1.761349,2.81617 -3.283871,4.27898 -0.368191,0.35824 -0.607018,0.35824 -0.159218,0 -0.308485,-0.13931 -0.189071,-0.16917 -0.189071,-0.408 0,-0.19902 0.129364,-0.36819 0.02985,-0.0498 0.567214,-0.64682 1.353353,-1.54243 2.83607,-4.12972 0.308485,-0.52741 0.537361,-0.97521 l -3.045044,0.39805 q -0.04976,0.01 -0.119413,0.01 -0.318436,0 -0.497556,-0.19903 -0.159218,-0.17912 -0.159218,-0.43784 0,-0.55727 0.616969,-0.63688 l 3.522698,-0.4677 v -2.82612 q -2.47783,0.72643 -2.905728,0.72643 -0.567214,0 -0.567214,-0.54731 0,-0.31843 0.328387,-0.47765 0.07961,-0.0398 0.567214,-0.16917 2.607194,-0.69658 5.164633,-1.98027 0.348289,-0.17912 0.626921,-0.17912 0.368191,0 0.557263,0.26868 0.119413,0.17912 0.119413,0.39804 0,0.41795 -0.487605,0.66673 -0.597067,0.30848 -1.940469,0.80604 v 3.12465 l 2.666901,-0.35824 q 0.07961,-0.01 0.109462,-0.01 0.228876,0 0.398045,0.12936 0.248778,0.17912 0.248778,0.51746 0,0.54731 -0.587116,0.62692 l -2.83607,0.37815 v 1.06477 q 1.930518,1.04486 3.005239,1.831 0.497556,0.35824 0.497556,0.76624 0,0.22887 -0.139315,0.43785 -0.208974,0.29853 -0.577166,0.29853 -0.318436,0 -0.766236,-0.4279 -0.696579,-0.65677 -2.020078,-1.66183 v 7.42353 q 0,0.17912 -0.08956,0.32839 -0.189071,0.33834 -0.646823,0.33834 -0.726432,0 -0.726432,-0.66673 z m 12.478707,3.19431 q 0.68663,0.0199 0.68663,0.67668 0,0.63687 -0.63687,0.67667 l -5.313903,0.34829 v 0.0398 q 0,0.77619 -0.746334,0.77619 -0.636872,0 -0.686628,-0.73638 l -0.507507,-8.86645 q -0.01,-0.77619 0.736383,-0.77619 0.537361,0 0.716481,0.4876 l 4.706878,-0.54731 0.23883,-0.0199 q 0.16917,-0.0199 0.25873,-0.0199 1.04487,0 1.10457,1.24389 l -0.01,0.27863 z m -1.35335,0.0896 0.36819,-6.07018 v -0.14927 q -0.01,-0.45775 -0.4279,-0.47765 l -0.18907,0.01 -4.060058,0.49755 0.328387,6.45828 z m 19.0962,2.52759 q 0.15922,0 0.27863,0.0597 0.30849,0.16917 0.30849,0.58711 0,0.3881 -0.28858,0.58712 -0.13932,0.0995 -0.33834,0.10946 l -8.08031,0.37815 0.01,0.0498 q 0.01,0.0796 0.01,0.12936 0,0.62692 -0.77619,0.62692 -0.61697,0 -0.72643,-0.75628 l -0.81599,-5.77166 q 0,-0.0299 0,-0.0896 0,-0.37814 0.36819,-0.55726 0.18907,-0.0995 0.40799,-0.0995 0.49756,0 0.68663,0.41795 l 8.12012,-0.66673 q 0.12936,-0.01 0.25873,-0.01 1.31355,0 1.31355,1.10458 0,0.14926 -0.0398,0.36819 z m -1.51257,0.0796 0.55727,-3.38338 q 0,-0.0199 0,-0.0896 0,-0.21893 -0.23883,-0.21893 -0.0298,0 -0.0697,0 l -7.47329,0.56721 0.4478,3.49285 z m -2.93558,-14.1704 q 0.72643,0.86575 2.13949,2.12954 3.0351,2.71665 5.98063,4.22923 0.78614,0.39804 0.78614,0.64682 0,0.17912 -0.3881,0.27863 -0.99511,0.26868 -1.54242,0.26868 -0.33834,0 -0.60702,-0.18907 -1.82106,-1.22399 -3.93069,-3.17441 -1.78125,-1.65189 -3.06495,-3.19431 -3.31372,4.72678 -7.76188,7.02549 -0.37814,0.19903 -0.57716,0.19903 -0.24878,0 -0.38809,-0.22888 -0.0796,-0.13932 -0.0796,-0.27863 0,-0.22888 0.21892,-0.408 0.0498,-0.0498 0.70653,-0.47765 2.61715,-1.7514 4.70688,-4.07996 1.53248,-1.7116 2.46788,-3.43314 0.29853,-0.54731 0.71648,-0.54731 0.17912,0 0.35824,0.0796 0.408,0.16917 0.408,0.60702 0,0.24878 -0.14927,0.54731 z m 2.42808,6.77671 -6.1697,0.50751 q -0.0398,0 -0.11941,0 -0.68663,0 -0.68663,-0.66673 0,-0.57716 0.65677,-0.63687 l 6.19955,-0.55726 q 0.0498,0 0.0995,0 0.69658,0 0.69658,0.70653 0,0.58711 -0.67667,0.64682 z m 20.59882,2.31861 q 1.00507,-1.56232 1.86086,-3.29382 0.28858,-0.59706 0.73639,-0.59706 0.19902,0 0.37814,0.0995 0.35824,0.20897 0.35824,0.59706 0,0.24878 -0.23883,0.75629 -1.01501,2.18925 -2.38827,4.02025 1.10458,2.13949 2.52759,3.55255 0.56721,0.55727 0.74633,0.55727 0.41795,0 0.62692,-2.46788 0.0498,-0.61697 0.53736,-0.61697 0.37815,0 0.49756,0.40799 0.0498,0.15922 0.0498,0.62692 0,2.10964 -0.20897,2.85598 -0.27863,0.99511 -1.08467,0.99511 -0.9155,0 -2.18925,-1.24389 -1.3036,-1.25384 -2.51763,-3.43314 -1.7116,1.89071 -3.44309,3.10475 -0.34829,0.24878 -0.61697,0.24878 -0.25873,0 -0.41795,-0.20897 -0.12936,-0.16917 -0.12936,-0.34829 0,-0.34829 0.64682,-0.82595 1.64194,-1.20408 3.27392,-3.35353 -1.15433,-2.63704 -1.91062,-6.66725 l -5.81145,0.4478 0.01,0.63687 q 0.01,0.46771 0.01,0.74634 0,0.53736 -0.0199,1.12448 l 3.38338,-0.30849 q 0.0995,-0.01 0.25873,-0.01 1.16428,0 1.16428,1.29365 0,1.99022 -0.55726,4.25908 -0.26868,1.09462 -0.54731,1.55237 -0.39805,0.66673 -1.11453,0.66673 -0.64682,0 -1.7514,-0.52741 -0.84584,-0.39805 -0.84584,-0.81599 0,-0.12937 0.0697,-0.25873 0.14926,-0.24878 0.42789,-0.24878 0.16917,0 0.45776,0.10946 0.73638,0.29854 1.01501,0.29854 0.51746,0 0.74633,-0.78614 0.25873,-0.86575 0.4478,-2.25891 0.14927,-1.12448 0.14927,-1.61208 0,-0.4279 -0.43785,-0.408 -0.0498,0 -0.11941,0.01 l -2.80622,0.28859 q -0.21892,3.49284 -0.96526,5.60248 -0.85579,2.40817 -1.53247,2.40817 -0.21892,0 -0.39805,-0.14927 -0.22887,-0.18907 -0.22887,-0.43785 0,-0.19902 0.18907,-0.55726 0.8757,-1.67179 1.26379,-4.3984 0.25873,-1.831 0.25873,-4.99546 0,-0.28858 -0.01,-0.56721 -0.0498,-1.49267 -0.0498,-1.59218 0,-0.8558 0.75628,-0.8558 0.58712,0 0.72643,0.50751 l 5.64229,-0.45775 q -0.4279,-2.67686 -0.4279,-3.26397 0,-0.66673 0.73638,-0.66673 0.49756,0 0.69658,0.45775 0.0697,0.15922 0.17912,1.14438 0.11942,1.02497 0.30849,2.20915 l 5.01536,-0.40799 q 0.0498,0 0.0796,0 0.41795,0 0.59707,0.33834 0.0796,0.13931 0.0796,0.30848 0,0.63687 -0.60702,0.68663 L 137.71971,145.6 q 0.60702,3.25402 1.42301,5.34375 z m 0.23883,-10.2397 q 0.58712,0 2.09969,0.92545 0.45775,0.28859 0.56721,0.37815 0.28858,0.26868 0.28858,0.60701 0,0.21893 -0.14926,0.43785 -0.20898,0.31844 -0.57717,0.31844 -0.35824,0 -0.70653,-0.31844 -0.99511,-0.90555 -1.59218,-1.3434 -0.38809,-0.27863 -0.38809,-0.53736 0,-0.4677 0.45775,-0.4677 z"
         id="path24" />
    </g>
  </g>
</svg>
